<?xml version="1.0" encoding="UTF-8" standalone="no"?>
<!DOCTYPE svg PUBLIC "-//W3C//DTD SVG 1.1//EN"
 "http://www.w3.org/Graphics/SVG/1.1/DTD/svg11.dtd">
<!-- Generated by graphviz version 2.26.0 (20091210.2329)
 -->
<!-- Title: G Pages: 1 -->
<svg width="224pt" height="208pt"
 viewBox="0.00 0.00 224.43 208.43" xmlns="http://www.w3.org/2000/svg" xmlns:xlink="http://www.w3.org/1999/xlink">
<g id="graph1" class="graph" transform="scale(1 1) rotate(0) translate(4 204.428)">
<title>G</title>
<polygon fill="white" stroke="white" points="-4,5 -4,-204.428 221.428,-204.428 221.428,5 -4,5"/>
<!-- 1 -->
<g id="node2" class="node"><title>1</title>
<ellipse fill="none" stroke="black" cx="108.214" cy="-20" rx="27" ry="19.0919"/>
<text text-anchor="middle" x="108.214" y="-16.9" font-family="Times Roman,serif" font-size="14.00">1</text>
</g>
<!-- 2 -->
<g id="node6" class="node"><title>2</title>
<ellipse fill="none" stroke="black" cx="28" cy="-100.214" rx="27" ry="19.0919"/>
<text text-anchor="middle" x="28" y="-97.1141" font-family="Times Roman,serif" font-size="14.00">2</text>
</g>
<!-- 1&#45;&#45;2 -->
<g id="edge5" class="edge"><title>1&#45;&#45;2</title>
<path fill="none" stroke="black" d="M92.3664,-35.8477C78.2124,-50.0017 57.6018,-70.6123 43.5419,-84.6722"/>
</g>
<!-- 3 -->
<g id="node4" class="node"><title>3</title>
<ellipse fill="none" stroke="black" cx="108.214" cy="-180.428" rx="27" ry="19.0919"/>
<text text-anchor="middle" x="108.214" y="-177.328" font-family="Times Roman,serif" font-size="14.00">3</text>
</g>
<!-- 4 -->
<g id="node7" class="node"><title>4</title>
<ellipse fill="none" stroke="black" cx="188.428" cy="-100.214" rx="27" ry="19.0919"/>
<text text-anchor="middle" x="188.428" y="-97.1141" font-family="Times Roman,serif" font-size="14.00">4</text>
</g>
<!-- 3&#45;&#45;4 -->
<g id="edge7" class="edge"><title>3&#45;&#45;4</title>
<path fill="none" stroke="black" d="M124.062,-164.58C138.216,-150.427 158.826,-129.816 172.886,-115.756"/>
</g>
<!-- 2&#45;&#45;3 -->
<g id="edge6" class="edge"><title>2&#45;&#45;3</title>
<path fill="none" stroke="black" d="M43.8477,-116.062C58.0017,-130.216 78.6123,-150.826 92.6722,-164.886"/>
</g>
<!-- 4&#45;&#45;1 -->
<g id="edge8" class="edge"><title>4&#45;&#45;1</title>
<path fill="none" stroke="black" d="M172.58,-84.3664C158.427,-70.2124 137.816,-49.6018 123.756,-35.5419"/>
</g>
</g>
</svg>
